<svg width="25" height="25" viewBox="0 0 25 25" fill="none" xmlns="http://www.w3.org/2000/svg">
<path d="M21.9219 0.729996C23.1406 0.729996 24.1719 1.76125 24.1719 2.98V16.48C24.1719 17.7456 23.1406 18.73 21.9219 18.73H8.42188C7.15625 18.73 6.17188 17.7456 6.17188 16.48V2.98C6.17188 1.76125 7.15625 0.729996 8.42188 0.729996H21.9219ZM8.42188 20.23H18.1719V22.48C18.1719 23.7456 17.1406 24.73 15.9219 24.73H2.42188C1.15625 24.73 0.171875 23.7456 0.171875 22.48V8.98C0.171875 7.76125 1.15625 6.73 2.42188 6.73H4.67188V16.48C4.67188 18.5894 6.3125 20.23 8.42188 20.23Z" fill="#3B75A2"/>
</svg>
